<mxfile host="app.diagrams.net" modified="2022-04-04T13:11:54.882Z" agent="5.0 (Windows NT 10.0; WOW64) AppleWebKit/537.36 (KHTML, like Gecko) Chrome/100.0.4896.60 Safari/537.36" etag="rIg8OIc6rD0VbVu-L9x6" version="17.4.0" type="github">
  <diagram id="C5RBs43oDa-KdzZeNtuy" name="Page-1">
    <mxGraphModel dx="1422" dy="754" grid="1" gridSize="10" guides="1" tooltips="1" connect="1" arrows="1" fold="1" page="1" pageScale="1" pageWidth="827" pageHeight="1169" math="0" shadow="0">
      <root>
        <mxCell id="WIyWlLk6GJQsqaUBKTNV-0" />
        <mxCell id="WIyWlLk6GJQsqaUBKTNV-1" parent="WIyWlLk6GJQsqaUBKTNV-0" />
        <mxCell id="RRuU-wXvv9S3TImhqAdj-2" value="" style="edgeStyle=orthogonalEdgeStyle;rounded=0;orthogonalLoop=1;jettySize=auto;html=1;" edge="1" parent="WIyWlLk6GJQsqaUBKTNV-1" source="RRuU-wXvv9S3TImhqAdj-0" target="RRuU-wXvv9S3TImhqAdj-1">
          <mxGeometry relative="1" as="geometry" />
        </mxCell>
        <mxCell id="RRuU-wXvv9S3TImhqAdj-0" value="Begin" style="ellipse;whiteSpace=wrap;html=1;" vertex="1" parent="WIyWlLk6GJQsqaUBKTNV-1">
          <mxGeometry x="354" y="10" width="120" height="80" as="geometry" />
        </mxCell>
        <mxCell id="RRuU-wXvv9S3TImhqAdj-7" value="" style="edgeStyle=orthogonalEdgeStyle;rounded=0;orthogonalLoop=1;jettySize=auto;html=1;" edge="1" parent="WIyWlLk6GJQsqaUBKTNV-1" source="RRuU-wXvv9S3TImhqAdj-1" target="RRuU-wXvv9S3TImhqAdj-6">
          <mxGeometry relative="1" as="geometry" />
        </mxCell>
        <mxCell id="RRuU-wXvv9S3TImhqAdj-1" value="Input num1, num2,num3" style="shape=parallelogram;perimeter=parallelogramPerimeter;whiteSpace=wrap;html=1;fixedSize=1;" vertex="1" parent="WIyWlLk6GJQsqaUBKTNV-1">
          <mxGeometry x="271" y="190" width="286" height="60" as="geometry" />
        </mxCell>
        <mxCell id="RRuU-wXvv9S3TImhqAdj-9" value="" style="edgeStyle=orthogonalEdgeStyle;rounded=0;orthogonalLoop=1;jettySize=auto;html=1;" edge="1" parent="WIyWlLk6GJQsqaUBKTNV-1" source="RRuU-wXvv9S3TImhqAdj-6" target="RRuU-wXvv9S3TImhqAdj-8">
          <mxGeometry relative="1" as="geometry" />
        </mxCell>
        <mxCell id="RRuU-wXvv9S3TImhqAdj-6" value="max = num1" style="whiteSpace=wrap;html=1;" vertex="1" parent="WIyWlLk6GJQsqaUBKTNV-1">
          <mxGeometry x="354" y="330" width="120" height="60" as="geometry" />
        </mxCell>
        <mxCell id="RRuU-wXvv9S3TImhqAdj-14" value="" style="edgeStyle=orthogonalEdgeStyle;rounded=0;orthogonalLoop=1;jettySize=auto;html=1;" edge="1" parent="WIyWlLk6GJQsqaUBKTNV-1" source="RRuU-wXvv9S3TImhqAdj-8" target="RRuU-wXvv9S3TImhqAdj-10">
          <mxGeometry relative="1" as="geometry" />
        </mxCell>
        <mxCell id="RRuU-wXvv9S3TImhqAdj-16" value="" style="edgeStyle=orthogonalEdgeStyle;rounded=0;orthogonalLoop=1;jettySize=auto;html=1;" edge="1" parent="WIyWlLk6GJQsqaUBKTNV-1" source="RRuU-wXvv9S3TImhqAdj-8" target="RRuU-wXvv9S3TImhqAdj-15">
          <mxGeometry relative="1" as="geometry" />
        </mxCell>
        <mxCell id="RRuU-wXvv9S3TImhqAdj-8" value="num1 &amp;lt; num 2" style="rhombus;whiteSpace=wrap;html=1;" vertex="1" parent="WIyWlLk6GJQsqaUBKTNV-1">
          <mxGeometry x="336" y="460" width="156" height="80" as="geometry" />
        </mxCell>
        <mxCell id="RRuU-wXvv9S3TImhqAdj-18" value="" style="edgeStyle=orthogonalEdgeStyle;rounded=0;orthogonalLoop=1;jettySize=auto;html=1;" edge="1" parent="WIyWlLk6GJQsqaUBKTNV-1" source="RRuU-wXvv9S3TImhqAdj-10" target="RRuU-wXvv9S3TImhqAdj-17">
          <mxGeometry relative="1" as="geometry" />
        </mxCell>
        <mxCell id="RRuU-wXvv9S3TImhqAdj-10" value="num1 &amp;lt; num3" style="rhombus;whiteSpace=wrap;html=1;" vertex="1" parent="WIyWlLk6GJQsqaUBKTNV-1">
          <mxGeometry x="328" y="720" width="172" height="80" as="geometry" />
        </mxCell>
        <mxCell id="RRuU-wXvv9S3TImhqAdj-15" value="max = num 2" style="whiteSpace=wrap;html=1;" vertex="1" parent="WIyWlLk6GJQsqaUBKTNV-1">
          <mxGeometry x="354" y="590" width="120" height="60" as="geometry" />
        </mxCell>
        <mxCell id="RRuU-wXvv9S3TImhqAdj-17" value="max = num 3" style="whiteSpace=wrap;html=1;" vertex="1" parent="WIyWlLk6GJQsqaUBKTNV-1">
          <mxGeometry x="354" y="850" width="120" height="60" as="geometry" />
        </mxCell>
      </root>
    </mxGraphModel>
  </diagram>
</mxfile>
